<svg xmlns="http://www.w3.org/2000/svg" viewBox="0 0 800 450" role="img" aria-labelledby="t-engineering-book">
  <title id="t-engineering-book">Инженерные практики Rust</title>
  <defs>
    <linearGradient id="g" x1="0" y1="0" x2="1" y2="1">
      <stop offset="0" stop-color="#0f766e"/><stop offset="1" stop-color="#042f2e"/>
    </linearGradient>
  </defs>
  <rect width="800" height="450" fill="url(#g)"/>
  <circle cx="700" cy="80" r="160" fill="#ffffff" fill-opacity=".06"/>
  <circle cx="90" cy="420" r="120" fill="#ffffff" fill-opacity=".05"/>
  <text x="60" y="120" font-size="20" letter-spacing="3" fill="#ffffff" fill-opacity=".85" font-family="DejaVu Sans, Arial, sans-serif" font-weight="700">ПРАКТИКИ · ПРОДАКШЕН</text>
  <text x="60" y="210" font-size="50" font-weight="700" fill="#ffffff" font-family="DejaVu Sans, Arial, sans-serif">Инженерные</text>
  <text x="60" y="268" font-size="50" font-weight="700" fill="#ffffff" font-family="DejaVu Sans, Arial, sans-serif">практики Rust</text>
  <g transform="translate(650 225)">
    <g fill="#ffffff">
      <rect x="-14" y="-98" width="28" height="36" rx="5"/>
      <rect x="-14" y="-98" width="28" height="36" rx="5" transform="rotate(45)"/>
      <rect x="-14" y="-98" width="28" height="36" rx="5" transform="rotate(90)"/>
      <rect x="-14" y="-98" width="28" height="36" rx="5" transform="rotate(135)"/>
      <rect x="-14" y="-98" width="28" height="36" rx="5" transform="rotate(180)"/>
      <rect x="-14" y="-98" width="28" height="36" rx="5" transform="rotate(225)"/>
      <rect x="-14" y="-98" width="28" height="36" rx="5" transform="rotate(270)"/>
      <rect x="-14" y="-98" width="28" height="36" rx="5" transform="rotate(315)"/>
      <circle r="78"/>
    </g>
    <circle r="34" fill="#042f2e"/>
    <circle r="12" fill="#fbbf24"/>
  </g>
</svg>
